<?xml version="1.0" encoding="utf-8"?>
<!-- Generator: Adobe Illustrator 19.1.0, SVG Export Plug-In . SVG Version: 6.00 Build 0)  -->
<svg version="1.1" id="Layer_1" xmlns="http://www.w3.org/2000/svg" xmlns:xlink="http://www.w3.org/1999/xlink" x="0px" y="0px"
	 width="37px" height="37px" viewBox="-255.7 400.9 37 37" style="enable-background:new -255.7 400.9 37 37;" xml:space="preserve"
	>
<style type="text/css">
	.st0{fill:#FFFFFF;}
</style>
<path class="st0" d="M-247.7,437.9h-7v-25h7V437.9z M-251.2,409.9c-2.5,0-4.5-2-4.5-4.5s2-4.5,4.5-4.5s4.5,2,4.5,4.5
	S-248.8,409.9-251.2,409.9z M-218.7,437.9h-7v-11.7c0-2.9-0.2-6.6-4.2-6.6s-4.8,3.2-4.8,6.4v11.9h-8v-25h8v4h-0.2
	c1-2,3.3-4.1,7.1-4.1c7.9,0,9.1,5.1,9.1,11.9C-218.7,424.7-218.7,437.9-218.7,437.9z"/>
</svg>
