<?xml version="1.0" encoding="utf-8"?>
<!-- Generator: Adobe Illustrator 19.1.0, SVG Export Plug-In . SVG Version: 6.00 Build 0)  -->
<svg version="1.1" id="Layer_1" xmlns="http://www.w3.org/2000/svg" xmlns:xlink="http://www.w3.org/1999/xlink" x="0px" y="0px"
	 width="37.3px" height="30.6px" viewBox="-255.8 405.6 37.3 30.6" style="enable-background:new -255.8 405.6 37.3 30.6;"
	 xml:space="preserve">
<style type="text/css">
	.st0{fill:#FFFFFF;}
</style>
<path class="st0" d="M-222.1,413.3c0,0.3,0,0.7,0,1c0,10.2-7.7,21.9-21.9,21.9c-4.3,0-8.4-1.3-11.8-3.5c0.6,0.1,1.2,0.1,1.8,0.1
	c3.6,0,6.9-1.2,9.6-3.3c-3.4-0.1-6.2-2.3-7.2-5.3c0.5,0.1,1,0.1,1.4,0.1c0.7,0,1.5-0.1,2.1-0.3c-3.5-0.7-6.1-3.8-6.1-7.5v-0.1
	c1,0.6,2.1,0.9,3.4,1c-2.1-1.4-3.5-3.7-3.5-6.4c0-1.4,0.4-2.7,1-3.9c3.8,4.7,9.4,7.7,15.8,8c-0.1-0.6-0.2-1.1-0.2-1.8
	c0-4.3,3.4-7.7,7.7-7.7c2.2,0,4.2,0.9,5.6,2.4c1.8-0.3,3.4-1,4.9-1.9c-0.6,1.8-1.8,3.3-3.4,4.3c1.6-0.2,3-0.6,4.4-1.2
	C-219.3,410.8-220.6,412.2-222.1,413.3z"/>
</svg>
