<svg version="1.1" id="Layer_1" xmlns="http://www.w3.org/2000/svg" xmlns:xlink="http://www.w3.org/1999/xlink" x="0px" y="0px"
	 viewBox="-161 438.3 273 89.6" style="enable-background:new -161 438.3 273 89.6;" xml:space="preserve">
<style type="text/css">
	.st0{clip-path:url(#SVGID_2_);fill:none;stroke:#FFFFFF;stroke-miterlimit:10;}
</style>
<g>
	<g>
		<defs>
			<rect id="SVGID_1_" x="-161" y="438.3" width="273" height="89.6"/>
		</defs>
		<clipPath id="SVGID_2_">
			<use xlink:href="#SVGID_1_"  style="overflow:visible;"/>
		</clipPath>
		<path class="st0" d="M1.7,467.1h-4.2L-3.7,478h6.9L1.7,467.1z M1.7,438.7h-4.2v28.4h4.2V438.7z M-114,510.6h-8v-3.3h8V510.6z
			 M8.8,511.4h-66.2v-24H8.8V511.4z M17.3,490c0-0.8,0.7-1.5,1.5-1.5s1.5,0.7,1.5,1.5c0,0.8-0.7,1.5-1.5,1.5
			C18,491.6,17.3,490.9,17.3,490z M17.3,496.4c0-0.8,0.7-1.5,1.5-1.5s1.5,0.7,1.5,1.5c0,0.8-0.7,1.5-1.5,1.5S17.3,497.2,17.3,496.4z
			 M17.3,502.8c0-0.8,0.7-1.5,1.5-1.5s1.5,0.7,1.5,1.5c0,0.8-0.7,1.5-1.5,1.5S17.3,503.6,17.3,502.8z M17.3,509.1
			c0-0.8,0.7-1.5,1.5-1.5s1.5,0.7,1.5,1.5c0,0.8-0.7,1.5-1.5,1.5S17.3,510,17.3,509.1z M-102.8,501.3c-0.3,0-0.6-0.3-0.6-0.6
			c0-0.3,0.3-0.6,0.6-0.6c0.3,0,0.6,0.3,0.6,0.6S-102.5,501.3-102.8,501.3z M-97.6,501.3c-0.3,0-0.6-0.3-0.6-0.6
			c0-0.3,0.3-0.6,0.6-0.6s0.6,0.3,0.6,0.6S-97.3,501.3-97.6,501.3z M-92.4,501.3c-0.3,0-0.6-0.3-0.6-0.6c0-0.3,0.3-0.6,0.6-0.6
			c0.3,0,0.6,0.3,0.6,0.6S-92.1,501.3-92.4,501.3z M-87.2,501.3c-0.3,0-0.6-0.3-0.6-0.6c0-0.3,0.3-0.6,0.6-0.6
			c0.3,0,0.6,0.3,0.6,0.6S-86.9,501.3-87.2,501.3z M-69.2,490c0-0.8,0.7-1.5,1.5-1.5s1.5,0.7,1.5,1.5c0,0.8-0.7,1.5-1.5,1.5
			C-68.5,491.6-69.2,490.9-69.2,490z M-69.2,496.4c0-0.8,0.7-1.5,1.5-1.5s1.5,0.7,1.5,1.5c0,0.8-0.7,1.5-1.5,1.5
			S-69.2,497.2-69.2,496.4z M-69.2,502.8c0-0.8,0.7-1.5,1.5-1.5s1.5,0.7,1.5,1.5c0,0.8-0.7,1.5-1.5,1.5S-69.2,503.6-69.2,502.8z
			 M-69.2,509.1c0-0.8,0.7-1.5,1.5-1.5s1.5,0.7,1.5,1.5c0,0.8-0.7,1.5-1.5,1.5S-69.2,510-69.2,509.1z M-85.6,509.1
			c0-1.2,1-2.2,2.2-2.2s2.2,1,2.2,2.2c0,1.2-1,2.2-2.2,2.2S-85.6,510.4-85.6,509.1z M-97.3,509.1c0-1.2,1-2.2,2.2-2.2
			c1.2,0,2.2,1,2.2,2.2c0,1.2-1,2.2-2.2,2.2C-96.3,511.4-97.3,510.4-97.3,509.1z M59,498.8c0-9.1,7.4-16.5,16.5-16.5
			S92,489.7,92,498.8s-7.4,16.5-16.5,16.5S59,507.9,59,498.8z M61.6,498.8c0-7.7,6.2-13.9,13.9-13.9s13.9,6.2,13.9,13.9
			c0,7.7-6.2,13.9-13.9,13.9C67.8,512.8,61.6,506.5,61.6,498.8z M-139.9,508.5c0-1.6,1.3-2.9,2.9-2.9s2.9,1.3,2.9,2.9
			s-1.3,2.9-2.9,2.9S-139.9,510.1-139.9,508.5z M86.1,520.9c0,0-2.5,6.6-6.8,6.6H61.2c-3.8,0-7.2-6.6-7.2-6.6H86.1z M-102.7,520.9
			c0,0-2.5,6.6-6.8,6.6h-18.1c-3.8,0-7.2-6.6-7.2-6.6H-102.7z M111.6,517.8c0,1.7-1.4,3.1-3.1,3.1h-266c-1.7,0-3.1-1.4-3.1-3.1V481
			c0-1.7,1.4-3.1,3.1-3.1h266.1c1.7,0,3.1,1.4,3.1,3.1v36.8H111.6z"/>
	</g>
</g>
</svg>
