<svg version="1.1" id="Layer_1" xmlns="http://www.w3.org/2000/svg" xmlns:xlink="http://www.w3.org/1999/xlink" x="0px" y="0px"
	 viewBox="39.9 691.7 273.3 89.8" style="enable-background:new 39.9 691.7 273.3 89.8;" xml:space="preserve">
<style type="text/css">
	.st0{fill:none;stroke:#FAEB14;stroke-miterlimit:10;}
</style>
<path class="st0" d="M202.7,720.6h-4.2l-1.2,10.9h6.9L202.7,720.6z M202.7,692.2h-4.2v28.4h4.2V692.2z M87,764.1h-8v-3.3h8V764.1z
	 M209.8,764.9h-66.2v-24h66.2V764.9z M218.3,743.5c0-0.8,0.7-1.5,1.5-1.5s1.5,0.7,1.5,1.5s-0.7,1.5-1.5,1.5
	C219,745.1,218.3,744.4,218.3,743.5z M218.3,749.9c0-0.8,0.7-1.5,1.5-1.5s1.5,0.7,1.5,1.5c0,0.8-0.7,1.5-1.5,1.5
	S218.3,750.7,218.3,749.9z M218.3,756.3c0-0.8,0.7-1.5,1.5-1.5s1.5,0.7,1.5,1.5s-0.7,1.5-1.5,1.5S218.3,757.1,218.3,756.3z
	 M218.3,762.6c0-0.8,0.7-1.5,1.5-1.5s1.5,0.7,1.5,1.5c0,0.8-0.7,1.5-1.5,1.5S218.3,763.5,218.3,762.6z M98.2,754.8
	c-0.3,0-0.6-0.3-0.6-0.6c0-0.3,0.3-0.6,0.6-0.6c0.3,0,0.6,0.3,0.6,0.6C98.8,754.5,98.5,754.8,98.2,754.8z M103.4,754.8
	c-0.3,0-0.6-0.3-0.6-0.6c0-0.3,0.3-0.6,0.6-0.6s0.6,0.3,0.6,0.6C104,754.5,103.7,754.8,103.4,754.8z M108.6,754.8
	c-0.3,0-0.6-0.3-0.6-0.6c0-0.3,0.3-0.6,0.6-0.6c0.3,0,0.6,0.3,0.6,0.6C109.2,754.5,108.9,754.8,108.6,754.8z M113.8,754.8
	c-0.3,0-0.6-0.3-0.6-0.6c0-0.3,0.3-0.6,0.6-0.6c0.3,0,0.6,0.3,0.6,0.6C114.4,754.5,114.1,754.8,113.8,754.8z M131.8,743.5
	c0-0.8,0.7-1.5,1.5-1.5s1.5,0.7,1.5,1.5s-0.7,1.5-1.5,1.5C132.5,745.1,131.8,744.4,131.8,743.5z M131.8,749.9c0-0.8,0.7-1.5,1.5-1.5
	s1.5,0.7,1.5,1.5c0,0.8-0.7,1.5-1.5,1.5S131.8,750.7,131.8,749.9z M131.8,756.3c0-0.8,0.7-1.5,1.5-1.5s1.5,0.7,1.5,1.5
	s-0.7,1.5-1.5,1.5S131.8,757.1,131.8,756.3z M131.8,762.6c0-0.8,0.7-1.5,1.5-1.5s1.5,0.7,1.5,1.5c0,0.8-0.7,1.5-1.5,1.5
	S131.8,763.5,131.8,762.6z M115.4,762.6c0-1.2,1-2.2,2.2-2.2s2.2,1,2.2,2.2c0,1.2-1,2.2-2.2,2.2S115.4,763.9,115.4,762.6z
	 M103.7,762.6c0-1.2,1-2.2,2.2-2.2s2.2,1,2.2,2.2c0,1.2-1,2.2-2.2,2.2C104.7,764.9,103.7,763.9,103.7,762.6z M260,752.3
	c0-9.1,7.4-16.5,16.5-16.5s16.5,7.4,16.5,16.5s-7.4,16.5-16.5,16.5S260,761.4,260,752.3z M262.6,752.3c0-7.7,6.2-13.9,13.9-13.9
	s13.9,6.2,13.9,13.9c0,7.7-6.2,13.9-13.9,13.9C268.8,766.3,262.6,760,262.6,752.3z M61.1,762c0-1.6,1.3-2.9,2.9-2.9s2.9,1.3,2.9,2.9
	s-1.3,2.9-2.9,2.9S61.1,763.6,61.1,762z M287.1,774.4c0,0-2.5,6.6-6.8,6.6h-18.1c-3.8,0-7.2-6.6-7.2-6.6H287.1z M98.3,774.4
	c0,0-2.5,6.6-6.8,6.6H73.4c-3.8,0-7.2-6.6-7.2-6.6H98.3z M312.6,771.3c0,1.7-1.4,3.1-3.1,3.1h-266c-1.7,0-3.1-1.4-3.1-3.1v-36.8
	c0-1.7,1.4-3.1,3.1-3.1h266.1c1.7,0,3.1,1.4,3.1,3.1v36.8H312.6z"/>
</svg>
