<?xml version="1.0" encoding="utf-8"?>
<!-- Generator: Adobe Illustrator 19.1.0, SVG Export Plug-In . SVG Version: 6.00 Build 0)  -->
<svg version="1.1" id="Layer_1" xmlns="http://www.w3.org/2000/svg" xmlns:xlink="http://www.w3.org/1999/xlink" x="0px" y="0px"
	 width="12.3px" height="12.3px" viewBox="0 0 12.3 12.3" style="enable-background:new 0 0 12.3 12.3;" xml:space="preserve">
<style type="text/css">
	.st0{fill:#93989E;}
</style>
<path class="st0" d="M7.5,1.4c1.6,0,3.1,0,4.7,0c0.2,0,0.2,0,0.2,0.2c0,1.2,0,2.4,0,3.5c0,0.2-0.1,0.4-0.3,0.4
	c-0.3,0.1-0.6,0.2-1,0.3C10.7,5.9,10.5,6,10.2,6C9.9,6.1,9.6,6.2,9.3,6.3C9,6.4,8.6,6.5,8.3,6.6C7.9,6.7,7.5,6.8,7.2,6.9
	C6.8,7,6.5,7.1,6.2,7.2C5.9,7.3,5.6,7.4,5.2,7.5C5,7.5,4.7,7.6,4.5,7.7c-0.1,0-0.3,0.1-0.4,0.2C4.1,7.9,4,8,4,8
	c0,0.1,0.1,0.1,0.2,0.1c0.2,0,0.4,0.1,0.6,0.1c2.5,0,4.9,0,7.4,0c0.2,0,0.2,0,0.2,0.2c0,0.3,0,0.5,0,0.8c0,0.2-0.1,0.4-0.4,0.4
	c-2.9,0-5.9,0-8.8,0c-0.2,0-0.3-0.1-0.3-0.3c0-0.2,0-0.5,0-0.7c0-0.2,0-0.5-0.1-0.7C2.6,7.4,2.6,7,2.5,6.7C2.4,6.2,2.3,5.8,2.2,5.4
	C2.1,5.1,2.1,4.7,2,4.4C1.9,4.1,1.9,3.9,1.8,3.6C1.7,3.3,1.7,3.1,1.6,2.8C1.6,2.4,1.5,2.1,1.4,1.7c0-0.1,0-0.2-0.1-0.2
	c0-0.1-0.1-0.1-0.2-0.1c-0.3,0-0.7,0-1,0C0,1.4,0,1.4,0,1.2c0-0.3,0-0.6,0-0.8C0,0.1,0.1,0,0.3,0c0.7,0,1.3,0,2,0
	c0.2,0,0.3,0.1,0.3,0.3c0,0.3,0,0.7,0,1c0,0.1,0,0.1,0.2,0.1C4.4,1.4,5.9,1.4,7.5,1.4L7.5,1.4z"/>
<path class="st0" d="M4.8,10.9c0,0.8-0.6,1.4-1.4,1.4c-0.7,0-1.3-0.6-1.3-1.4c0-0.8,0.6-1.4,1.4-1.4C4.2,9.5,4.8,10.1,4.8,10.9"/>
<path class="st0" d="M11.6,10.9c0,0.8-0.6,1.4-1.4,1.4c-0.7,0-1.4-0.6-1.4-1.4c0-0.8,0.6-1.4,1.4-1.4C11,9.5,11.6,10.1,11.6,10.9"/>
</svg>
