<?xml version="1.0" encoding="utf-8"?>
<!-- Generator: Adobe Illustrator 19.1.0, SVG Export Plug-In . SVG Version: 6.00 Build 0)  -->
<svg version="1.1" id="Capa_1" xmlns="http://www.w3.org/2000/svg" xmlns:xlink="http://www.w3.org/1999/xlink" x="0px" y="0px"
	 width="612px" height="612px" viewBox="8 114.9 612 612" style="enable-background:new 8 114.9 612 612;" xml:space="preserve">
<style type="text/css">
	.st0{fill:#D3D3D3;}
</style>
<g>
	<g id="Rectangle_45_copy_6">
		<g>
			<path class="st0" d="M620,400.5h-55.1C558.1,276.2,458.7,176.8,334.4,170v-55.1h-27.2V170C182.9,176.8,83.5,276.2,76.7,400.5H8
				v27.2h68.7C83.5,552,182.9,651.4,307.2,658.2v68.7h27.2v-68.7c124.3-6.9,223.7-106.2,230.5-230.5H620V400.5z M537.7,400.5H334.4
				V197.2C443.7,204,531,291.2,537.7,400.5z M307.2,197.2v203.3H103.9C110.6,291.2,197.9,204,307.2,197.2z M103.9,427.7h203.3V631
				C197.9,624.2,110.6,537,103.9,427.7z M334.4,631V427.7h203.3C531,537,443.7,624.2,334.4,631z"/>
		</g>
	</g>
</g>
</svg>
