<?xml version="1.0" encoding="utf-8"?>
<!-- Generator: Adobe Illustrator 19.1.0, SVG Export Plug-In . SVG Version: 6.00 Build 0)  -->
<svg version="1.1"
	 id="svg2" sodipodi:docname="linkedin.svg" inkscape:version="0.47 r22583" inkscape:output_extension="org.inkscape.output.svg.inkscape" sodipodi:version="0.32" xmlns:rdf="http://www.w3.org/1999/02/22-rdf-syntax-ns#" xmlns:svg="http://www.w3.org/2000/svg" xmlns:cc="http://creativecommons.org/ns#" xmlns:inkscape="http://www.inkscape.org/namespaces/inkscape" xmlns:sodipodi="http://sodipodi.sourceforge.net/DTD/sodipodi-0.dtd" xmlns:dc="http://purl.org/dc/elements/1.1/"
	 xmlns="http://www.w3.org/2000/svg" xmlns:xlink="http://www.w3.org/1999/xlink" x="0px" y="0px" width="235px" height="235px"
	 viewBox="-158.5 303.4 235 235" style="enable-background:new -158.5 303.4 235 235;" xml:space="preserve">
<style type="text/css">
	.st0{fill:#EC708A;}
	.st1{display:none;opacity:0.7811;fill:url(#path1950_1_);enable-background:new    ;}
	.st2{fill:#FFFFFF;}
</style>
<sodipodi:namedview  id="base" inkscape:window-y="281" inkscape:document-units="px" inkscape:window-height="674" inkscape:window-maximized="0" inkscape:pageshadow="2" inkscape:window-width="853" inkscape:window-x="1" inkscape:current-layer="layer1" inkscape:pageopacity="0.0" borderopacity="1.0" showgrid="false" bordercolor="#666666" inkscape:cx="138.80354" inkscape:cy="94.798647" inkscape:zoom="0.24748737" pagecolor="#ffffff">
	</sodipodi:namedview>
<g id="layer1" transform="translate(-373.642,-318.344)" inkscape:groupmode="layer" inkscape:label="Layer 1">
	
		<path id="rect1942" inkscape:export-ydpi="7.7063322" inkscape:export-xdpi="7.7063322" inkscape:export-filename="C:\Documents and Settings\Molumen\Desktop\path3511111.png" class="st0" d="
		M414.7,621.7h-164c-19.6,0-35.5,15.9-35.5,35.5v164c0,19.6,15.9,35.5,35.5,35.5h164c19.6,0,35.5-15.9,35.5-35.5v-164
		C450.1,637.6,434.3,621.7,414.7,621.7z"/>
	
		<linearGradient id="path1950_1_" gradientUnits="userSpaceOnUse" x1="-1058.8887" y1="1455.6023" x2="-1110.5852" y2="1606.2913" gradientTransform="matrix(-0.5915 0 0 0.5915 -351.4595 -273.778)">
		<stop  offset="0" style="stop-color:#FFFFFF"/>
		<stop  offset="1" style="stop-color:#FFFFFF;stop-opacity:0"/>
	</linearGradient>
	
		<path id="path1950" sodipodi:nodetypes="ccccsssc" inkscape:export-ydpi="7.7063322" inkscape:export-xdpi="7.7063322" inkscape:export-filename="C:\Documents and Settings\Molumen\Desktop\path3511111.png" class="st1" d="
		M388.1,631.8H277.2c-29.3,0-53,23.8-53,53.4v108.1c1,23.1,4.6,8.5,11.6-17.1c8.1-29.7,34.4-55.7,66.4-75.1
		c24.5-14.9,51.8-24.3,101.7-25.2C432.2,675.3,429.7,639.2,388.1,631.8z"/>
</g>
<g id="layer1_1_" transform="translate(-200.55198,-393.96227)" inkscape:groupmode="layer" inkscape:label="Layer 1">
	<g id="g3019" transform="matrix(1.018827,0,0,-1.018827,170.5996,498.03288)">
		<path id="path28_1_" inkscape:connector-curvature="0" class="st2" d="M-56.4-389.3v104.3H-91v-104.3H-56.4z M-73.7-270.7
			c12.1,0,19.6,8,19.6,18c-0.2,10.2-7.5,18-19.4,18c-11.9,0-19.6-7.8-19.6-18c0-10,7.5-18,19.2-18H-73.7L-73.7-270.7z"/>
		<path id="path30_1_" inkscape:connector-curvature="0" class="st2" d="M-37.2-389.3h34.7v58.2c0,3.1,0.2,6.2,1.1,8.5
			c2.5,6.2,8.2,12.7,17.8,12.7c12.5,0,17.6-9.6,17.6-23.6v-55.8h34.7v59.8c0,32-17.1,46.9-39.9,46.9c-18.7,0-26.9-10.5-31.5-17.6
			h0.2v15.1h-34.7C-36.7-294.7-37.2-389.3-37.2-389.3L-37.2-389.3z"/>
	</g>
</g>
</svg>
