<?xml version="1.0" encoding="utf-8"?>
<!-- Generator: Adobe Illustrator 19.1.0, SVG Export Plug-In . SVG Version: 6.00 Build 0)  -->
<svg version="1.1" id="Layer_1" xmlns="http://www.w3.org/2000/svg" xmlns:xlink="http://www.w3.org/1999/xlink" x="0px" y="0px"
	 viewBox="-218 401.2 157.9 39.7" style="enable-background:new -218 401.2 157.9 39.7;" xml:space="preserve">
<style type="text/css">
	.st0{fill:#231F20;}
</style>
<g>
	<path class="st0" d="M-198.2,401.2c-10.9,0-19.8,8.9-19.8,19.8s8.9,19.8,19.8,19.8c11,0,19.8-8.9,19.8-19.8
		S-187.2,401.2-198.2,401.2z M-198.2,437.8c-4.3,0-7.9-3.5-7.9-7.9s3.5-7.9,7.9-7.9c4.3,0,7.9,3.5,7.9,7.9S-193.9,437.8-198.2,437.8
		z"/>
	<path class="st0" d="M-170.4,436.2l6-13c0.1-0.1,0.2-0.2,0.3-0.2h0.2c0.2,0,0.3,0.1,0.3,0.2l5.9,13c0.1,0.3,0,0.5-0.3,0.5h-1.7
		c-0.3,0-0.4-0.1-0.6-0.4l-0.8-2.1h-5.8l-0.9,2.1c-0.1,0.2-0.3,0.4-0.6,0.4h-1.7C-170.3,436.7-170.5,436.5-170.4,436.2z
		 M-162.1,432.1l-1.9-4.2l0,0l-1.9,4.2C-165.9,432.1-162.1,432.1-162.1,432.1z"/>
	<path class="st0" d="M-156.4,423.6c0-0.2,0.2-0.4,0.4-0.4h1.8c0.2,0,0.4,0.2,0.4,0.4v7.9c0,1.6,1.1,2.9,2.8,2.9
		c1.7,0,2.8-1.3,2.8-2.9v-7.9c0-0.2,0.2-0.4,0.4-0.4h1.8c0.2,0,0.4,0.2,0.4,0.4v8c0,2.9-2.3,5.3-5.4,5.3c-3,0-5.4-2.4-5.4-5.3
		C-156.4,431.6-156.4,423.6-156.4,423.6z"/>
	<path class="st0" d="M-142.6,423.6c0-0.2,0.2-0.4,0.3-0.4h4.6c3.7,0,6.8,3,6.8,6.7c0,3.7-3,6.8-6.8,6.8h-4.6
		c-0.2,0-0.3-0.2-0.3-0.4V423.6z M-137.9,434.4c2.5,0,4.3-1.9,4.3-4.4s-1.8-4.4-4.3-4.4h-2.2v8.8H-137.9z"/>
	<path class="st0" d="M-128.4,423.6c0-0.2,0.2-0.4,0.4-0.4h1.8c0.2,0,0.4,0.2,0.4,0.4v12.8c0,0.2-0.2,0.4-0.4,0.4h-1.8
		c-0.2,0-0.4-0.2-0.4-0.4V423.6z"/>
	<path class="st0" d="M-116.6,423c3.9,0,6.9,3.1,6.9,7s-3.1,6.9-6.9,6.9c-3.9,0-6.9-3.1-6.9-6.9C-123.5,426.1-120.4,423-116.6,423z
		 M-116.6,434.4c2.4,0,4.4-2,4.4-4.4s-2-4.4-4.4-4.4s-4.4,2-4.4,4.4S-119,434.4-116.6,434.4z"/>
	<path class="st0" d="M-132.1,411.4l-3,4.7c-0.1,0.2-0.4,0.3-0.6,0.3h-1.1c-0.2,0-0.4-0.1-0.6-0.3l-3-4.7v7.1c0,0.2-0.2,0.4-0.4,0.4
		h-1.8c-0.2,0-0.4-0.2-0.4-0.4v-10.1v-2.6c0-0.2,0.2-0.4,0.4-0.4h0.7h0.4c0.1,0,0.3,0.1,0.4,0.2l4.7,7.8h0.1l4.7-7.8
		c0.1-0.1,0.3-0.2,0.4-0.2h0.4h0.8c0.2,0,0.4,0.2,0.4,0.4v2.6v10.1c0,0.2-0.2,0.4-0.4,0.4h-1.8c-0.2,0-0.4-0.2-0.4-0.4v-7.1H-132.1z
		"/>
	<path class="st0" d="M-157.6,418.4l6-13c0-0.1,0.1-0.2,0.3-0.2h0.2c0.2,0,0.3,0.1,0.3,0.2l5.9,13c0.1,0.3,0,0.5-0.3,0.5h-1.7
		c-0.3,0-0.4-0.1-0.6-0.4l-0.9-2.1h-5.8l-0.9,2.1c-0.1,0.2-0.3,0.4-0.6,0.4h-1.7C-157.6,418.9-157.7,418.6-157.6,418.4z
		 M-149.3,414.3l-1.9-4.2h-0.1l-1.9,4.2H-149.3z"/>
	<path class="st0" d="M-126.3,405.8c0-0.2,0.2-0.4,0.4-0.4h4.4c2.3,0,4.1,1.5,4.1,3.6c0,1.5-1.2,2.6-2.1,3.1c1,0.3,2.5,1.4,2.5,3.1
		c0,2.2-1.8,3.7-4.2,3.7h-4.8c-0.2,0-0.4-0.2-0.4-0.4L-126.3,405.8L-126.3,405.8z M-121.8,411.1c1,0,1.7-0.8,1.7-1.7
		s-0.7-1.6-1.7-1.6h-2.1v3.4h2.1V411.1z M-121.5,416.6c1,0,1.7-0.8,1.7-1.8s-1-1.7-2-1.7h-2.1v3.4h2.4V416.6z"/>
	<path class="st0" d="M-114.7,405.8c0-0.2,0.2-0.4,0.4-0.4h5.5c2.3,0,4.2,1.8,4.2,4.1c0,1.8-1.2,3.2-2.9,3.9l2.6,4.9
		c0.1,0.3,0,0.6-0.3,0.6h-2c-0.2,0-0.3-0.1-0.3-0.2l-2.6-5.1h-2.1v4.9c0,0.2-0.2,0.4-0.4,0.4h-1.8c-0.2,0-0.4-0.2-0.4-0.4v-12.7
		H-114.7z M-109.1,411.5c1,0,1.9-0.9,1.9-2c0-1-0.9-1.9-1.9-1.9h-3.1v3.8h3.1V411.5z"/>
	<path class="st0" d="M-102,405.8c0-0.2,0.2-0.4,0.4-0.4h1.8c0.2,0,0.4,0.2,0.4,0.4v12.8c0,0.2-0.2,0.4-0.4,0.4h-1.8
		c-0.2,0-0.4-0.2-0.4-0.4V405.8z"/>
	<path class="st0" d="M-96.3,405.8c0-0.2,0.2-0.4,0.3-0.4h4.6c3.7,0,6.8,3,6.8,6.7c0,3.7-3,6.8-6.8,6.8H-96c-0.2,0-0.3-0.2-0.3-0.4
		V405.8z M-91.7,416.5c2.5,0,4.3-1.9,4.3-4.4s-1.8-4.4-4.3-4.4h-2.2v8.8C-93.9,416.5-91.7,416.5-91.7,416.5z"/>
	<path class="st0" d="M-68.6,405.8c0-0.2,0.2-0.4,0.4-0.4h7.8c0.2,0,0.4,0.2,0.4,0.4v1.6c0,0.2-0.2,0.4-0.4,0.4h-5.7v3.2h4.8
		c0.2,0,0.4,0.2,0.4,0.4v1.6c0,0.2-0.2,0.4-0.4,0.4h-4.8v3.4h5.7c0.2,0,0.4,0.2,0.4,0.4v1.6c0,0.2-0.2,0.4-0.4,0.4h-7.8
		c-0.2,0-0.4-0.2-0.4-0.4V405.8z"/>
	<path class="st0" d="M-158.8,416.8L-158.8,416.8l-0.1-0.3l0,0l-0.2-0.6l-0.3-0.9c-0.1-0.2-0.3-0.3-0.5-0.1c0,0-0.2,0.3-0.6,0.5l0,0
		c-0.1,0.1-0.2,0.2-0.3,0.2c-0.1,0-0.1,0.1-0.2,0.1c-0.7,0.4-1.4,0.6-2.2,0.6c-2.5,0-4.3-2-4.3-4.4s1.8-4.5,4.3-4.5
		c0.2,0,0.4,0,0.7,0.1l0,0c0.8,0.1,1.6,0.5,2.2,1l0.4,0.3c0.2,0.2,0.4,0.1,0.5-0.1l0.4-1.4c0.1-0.2,0-0.5-0.2-0.7l-0.2-0.1l0,0
		c0,0-0.1,0-0.1-0.1l-0.2-0.1l0,0c-1-0.7-2.2-1-3.7-1c-3.9,0-7,3.1-7,7c0,3.9,3.1,6.9,7,6.9c1.5,0,2.9-0.5,4.1-1.4
		c0.1-0.1,0.2-0.2,0.4-0.3C-158.8,417.2-158.8,417-158.8,416.8z"/>
	<path class="st0" d="M-71.7,412.2h-2.1h-0.1h-1.5c-0.2,0-0.4,0.2-0.4,0.4v1.5c0,0.2,0.2,0.3,0.4,0.3h1.5h0.1v0.2v1.5
		c-0.4,0.2-1.2,0.5-2.3,0.5c-2.4,0-4.3-2-4.3-4.4c0-2.4,1.9-4.5,4.3-4.5c0.7,0,1.4,0.2,2.1,0.6c0.1,0,0.2,0.1,0.2,0.2
		c0.1,0.1,0.3,0.2,0.4,0.3c0,0,0,0,0.1,0.1c0.2,0.2,0.3,0.3,0.3,0.3c0.2,0.2,0.4,0.2,0.5-0.1l0.7-1.6c0.1-0.2,0-0.5-0.2-0.7
		l-0.1-0.1c-0.4-0.2-0.7-0.5-1.1-0.6l-0.1-0.1c0,0,0,0-0.1,0c-0.9-0.4-1.8-0.6-2.7-0.6c-3.8,0-6.9,3.1-6.9,7s3.1,6.9,6.9,6.9
		c2.8,0,4.8-1.3,4.8-1.3c0.1-0.1,0.2-0.2,0.2-0.3v-2.9v-0.3v-1.7C-71.3,412.4-71.5,412.2-71.7,412.2z"/>
</g>
</svg>
