<?xml version="1.0" encoding="utf-8"?>
<!-- Generator: Adobe Illustrator 19.1.0, SVG Export Plug-In . SVG Version: 6.00 Build 0)  -->
<svg version="1.1" id="Layer_1" xmlns="http://www.w3.org/2000/svg" xmlns:xlink="http://www.w3.org/1999/xlink" x="0px" y="0px"
	 viewBox="0 0 157.9 39.7" enable-background="new 0 0 157.9 39.7" xml:space="preserve">
<g>
	<path fill="#F1F2F2" d="M19.8,0C8.9,0,0,8.9,0,19.8s8.9,19.8,19.8,19.8c11,0,19.8-8.9,19.8-19.8S30.8,0,19.8,0z M19.8,36.6
		c-4.3,0-7.9-3.5-7.9-7.9s3.5-7.9,7.9-7.9c4.3,0,7.9,3.5,7.9,7.9S24.1,36.6,19.8,36.6z"/>
	<path fill="#F1F2F2" d="M47.6,35l6-13c0.1-0.1,0.2-0.2,0.3-0.2h0.2c0.2,0,0.3,0.1,0.3,0.2l5.9,13c0.1,0.3,0,0.5-0.3,0.5h-1.7
		c-0.3,0-0.4-0.1-0.6-0.4L56.9,33h-5.8l-0.9,2.1c-0.1,0.2-0.3,0.4-0.6,0.4h-1.7C47.7,35.5,47.5,35.3,47.6,35z M55.9,30.9L54,26.7H54
		l-1.9,4.2H55.9z"/>
	<path fill="#F1F2F2" d="M61.6,22.4c0-0.2,0.2-0.4,0.4-0.4h1.8c0.2,0,0.4,0.2,0.4,0.4v7.9c0,1.6,1.1,2.9,2.8,2.9
		c1.7,0,2.8-1.3,2.8-2.9v-7.9c0-0.2,0.2-0.4,0.4-0.4h1.8c0.2,0,0.4,0.2,0.4,0.4v8c0,2.9-2.3,5.3-5.4,5.3c-3,0-5.4-2.4-5.4-5.3V22.4z
		"/>
	<path fill="#F1F2F2" d="M75.4,22.4c0-0.2,0.2-0.4,0.3-0.4h4.6c3.7,0,6.8,3,6.8,6.7c0,3.7-3,6.8-6.8,6.8h-4.6
		c-0.2,0-0.3-0.2-0.3-0.4V22.4z M80.1,33.2c2.5,0,4.3-1.9,4.3-4.4c0-2.5-1.8-4.4-4.3-4.4h-2.2v8.8H80.1z"/>
	<path fill="#F1F2F2" d="M89.6,22.4c0-0.2,0.2-0.4,0.4-0.4h1.8c0.2,0,0.4,0.2,0.4,0.4v12.8c0,0.2-0.2,0.4-0.4,0.4H90
		c-0.2,0-0.4-0.2-0.4-0.4V22.4z"/>
	<path fill="#F1F2F2" d="M101.4,21.8c3.9,0,6.9,3.1,6.9,7c0,3.9-3.1,6.9-6.9,6.9c-3.9,0-6.9-3.1-6.9-6.9
		C94.5,24.9,97.6,21.8,101.4,21.8z M101.4,33.2c2.4,0,4.4-2,4.4-4.4s-2-4.4-4.4-4.4c-2.4,0-4.4,2-4.4,4.4S99,33.2,101.4,33.2z"/>
	<path fill="#F1F2F2" d="M85.9,10.2l-3,4.7c-0.1,0.2-0.4,0.3-0.6,0.3h-1.1c-0.2,0-0.4-0.1-0.6-0.3l-3-4.7v7.1c0,0.2-0.2,0.4-0.4,0.4
		h-1.8c-0.2,0-0.4-0.2-0.4-0.4V7.2V4.6c0-0.2,0.2-0.4,0.4-0.4h0.7h0.4c0.1,0,0.3,0.1,0.4,0.2l4.7,7.8h0.1l4.7-7.8
		c0.1-0.1,0.3-0.2,0.4-0.2h0.4H88c0.2,0,0.4,0.2,0.4,0.4v2.6v10.1c0,0.2-0.2,0.4-0.4,0.4h-1.8c-0.2,0-0.4-0.2-0.4-0.4V10.2z"/>
	<path fill="#F1F2F2" d="M60.4,17.2l6-13C66.4,4.1,66.5,4,66.7,4h0.2c0.2,0,0.3,0.1,0.3,0.2l5.9,13c0.1,0.3,0,0.5-0.3,0.5h-1.7
		c-0.3,0-0.4-0.1-0.6-0.4l-0.9-2.1h-5.8l-0.9,2.1c-0.1,0.2-0.3,0.4-0.6,0.4h-1.7C60.4,17.7,60.3,17.4,60.4,17.2z M68.7,13.1
		l-1.9-4.2h-0.1l-1.9,4.2H68.7z"/>
	<path fill="#F1F2F2" d="M91.7,4.6c0-0.2,0.2-0.4,0.4-0.4h4.4c2.3,0,4.1,1.5,4.1,3.6c0,1.5-1.2,2.6-2.1,3.1c1,0.3,2.5,1.4,2.5,3.1
		c0,2.2-1.8,3.7-4.2,3.7H92c-0.2,0-0.4-0.2-0.4-0.4V4.6z M96.2,9.9c1,0,1.7-0.8,1.7-1.7s-0.7-1.6-1.7-1.6h-2.1v3.4H96.2z M96.5,15.4
		c1,0,1.7-0.8,1.7-1.8c0-1-1-1.7-2-1.7h-2.1v3.4H96.5z"/>
	<path fill="#F1F2F2" d="M103.3,4.6c0-0.2,0.2-0.4,0.4-0.4h5.5c2.3,0,4.2,1.8,4.2,4.1c0,1.8-1.2,3.2-2.9,3.9l2.6,4.9
		c0.1,0.3,0,0.6-0.3,0.6h-2c-0.2,0-0.3-0.1-0.3-0.2l-2.6-5.1h-2.1v4.9c0,0.2-0.2,0.4-0.4,0.4h-1.8c-0.2,0-0.4-0.2-0.4-0.4V4.6z
		 M108.9,10.3c1,0,1.9-0.9,1.9-2c0-1-0.9-1.9-1.9-1.9h-3.1v3.8H108.9z"/>
	<path fill="#F1F2F2" d="M116,4.6c0-0.2,0.2-0.4,0.4-0.4h1.8c0.2,0,0.4,0.2,0.4,0.4v12.8c0,0.2-0.2,0.4-0.4,0.4h-1.8
		c-0.2,0-0.4-0.2-0.4-0.4V4.6z"/>
	<path fill="#F1F2F2" d="M121.7,4.6c0-0.2,0.2-0.4,0.3-0.4h4.6c3.7,0,6.8,3,6.8,6.7c0,3.7-3,6.8-6.8,6.8H122c-0.2,0-0.3-0.2-0.3-0.4
		V4.6z M126.3,15.3c2.5,0,4.3-1.9,4.3-4.4c0-2.5-1.8-4.4-4.3-4.4h-2.2v8.8H126.3z"/>
	<path fill="#F1F2F2" d="M149.4,4.6c0-0.2,0.2-0.4,0.4-0.4h7.8c0.2,0,0.4,0.2,0.4,0.4v1.6c0,0.2-0.2,0.4-0.4,0.4h-5.7v3.2h4.8
		c0.2,0,0.4,0.2,0.4,0.4v1.6c0,0.2-0.2,0.4-0.4,0.4h-4.8v3.4h5.7c0.2,0,0.4,0.2,0.4,0.4v1.6c0,0.2-0.2,0.4-0.4,0.4h-7.8
		c-0.2,0-0.4-0.2-0.4-0.4V4.6z"/>
	<path fill="#F1F2F2" d="M59.2,15.6L59.2,15.6l-0.1-0.3l0,0l-0.2-0.6l-0.3-0.9c-0.1-0.2-0.3-0.3-0.5-0.1c0,0-0.2,0.3-0.6,0.5
		c0,0,0,0,0,0c-0.1,0.1-0.2,0.2-0.3,0.2c-0.1,0-0.1,0.1-0.2,0.1c-0.7,0.4-1.4,0.6-2.2,0.6c-2.5,0-4.3-2-4.3-4.4
		c0-2.4,1.8-4.5,4.3-4.5c0.2,0,0.4,0,0.7,0.1c0,0,0,0,0,0c0.8,0.1,1.6,0.5,2.2,1l0.4,0.3c0.2,0.2,0.4,0.1,0.5-0.1L59,6.1
		c0.1-0.2,0-0.5-0.2-0.7l-0.2-0.1l0,0c0,0-0.1,0-0.1-0.1l-0.2-0.1c0,0,0,0,0,0c-1-0.7-2.2-1-3.7-1c-3.9,0-7,3.1-7,7
		c0,3.9,3.1,6.9,7,6.9c1.5,0,2.9-0.5,4.1-1.4c0.1-0.1,0.2-0.2,0.4-0.3C59.2,16,59.2,15.8,59.2,15.6z"/>
	<path fill="#F1F2F2" d="M146.3,11h-2.1h-0.1h-1.5c-0.2,0-0.4,0.2-0.4,0.4v1.5c0,0.2,0.2,0.3,0.4,0.3h1.5h0.1v0.2v1.5
		c-0.4,0.2-1.2,0.5-2.3,0.5c-2.4,0-4.3-2-4.3-4.4c0-2.4,1.9-4.5,4.3-4.5c0.7,0,1.4,0.2,2.1,0.6c0.1,0,0.2,0.1,0.2,0.2
		c0.1,0.1,0.3,0.2,0.4,0.3c0,0,0,0,0.1,0.1c0.2,0.2,0.3,0.3,0.3,0.3c0.2,0.2,0.4,0.2,0.5-0.1l0.7-1.6c0.1-0.2,0-0.5-0.2-0.7
		l-0.1-0.1c-0.4-0.2-0.7-0.5-1.1-0.6l-0.1-0.1c0,0,0,0-0.1,0c-0.9-0.4-1.8-0.6-2.7-0.6c-3.8,0-6.9,3.1-6.9,7c0,3.9,3.1,6.9,6.9,6.9
		c2.8,0,4.8-1.3,4.8-1.3c0.1-0.1,0.2-0.2,0.2-0.3v-2.9v-0.3v-1.7C146.7,11.2,146.5,11,146.3,11z"/>
</g>
</svg>
