<?xml version="1.0" encoding="utf-8"?>
<!-- Generator: Adobe Illustrator 19.1.0, SVG Export Plug-In . SVG Version: 6.00 Build 0)  -->
<svg version="1.1" id="Layer_1" xmlns="http://www.w3.org/2000/svg" xmlns:xlink="http://www.w3.org/1999/xlink" x="0px" y="0px"
	 width="13.9px" height="13.9px" viewBox="0 0 13.9 13.9" style="enable-background:new 0 0 13.9 13.9;" xml:space="preserve">
<style type="text/css">
	.st0{fill:#93989E;}
</style>
<path class="st0" d="M1,4.9C1,7,2.7,8.7,4.8,8.7C7,8.7,8.7,7,8.7,4.8C8.7,2.7,7,1,4.9,1C2.7,1,1,2.7,1,4.9 M12.4,13.9
	c-0.2-0.2-0.5-0.5-0.7-0.7c-0.9-0.9-1.7-1.7-2.6-2.6c-0.2-0.2-0.2-0.5,0-0.7c0,0,0,0,0,0C8.7,9.5,8.3,9.1,7.9,8.7
	C7.7,8.8,7.6,8.9,7.4,9C6.8,9.4,6.1,9.6,5.4,9.7C2.9,9.9,0.7,8.4,0.1,6C0.1,5.8,0.1,5.5,0,5.3c0,0,0,0,0-0.1V4.5c0,0,0,0,0-0.1
	c0-0.1,0-0.3,0-0.4c0.2-1.2,0.8-2.2,1.7-2.9c0.7-0.6,1.5-0.9,2.4-1.1C4.2,0,4.4,0,4.5,0h0.7c0.1,0,0.3,0,0.4,0.1
	c0.8,0.1,1.5,0.4,2.1,0.9c1,0.7,1.6,1.7,1.9,2.8c0.3,1.5,0,2.9-0.9,4.1c0,0,0,0,0,0c0,0,0,0,0,0C9,8.3,9.4,8.7,9.8,9.1
	C9.9,9,9.9,9,10,9c0.2,0,0.4,0,0.5,0.2c0.5,0.5,1,1,1.5,1.5c0.6,0.6,1.2,1.2,1.8,1.8c0,0,0,0,0.1,0v0.2c-0.4,0.4-0.8,0.8-1.3,1.3
	H12.4z"/>
</svg>
