<?xml version="1.0" encoding="utf-8"?>
<!-- Generator: Adobe Illustrator 19.1.0, SVG Export Plug-In . SVG Version: 6.00 Build 0)  -->
<svg version="1.1" id="Layer_1" xmlns="http://www.w3.org/2000/svg" xmlns:xlink="http://www.w3.org/1999/xlink" x="0px" y="0px"
	 width="14.1px" height="12.3px" viewBox="0 0 14.1 12.3" style="enable-background:new 0 0 14.1 12.3;" xml:space="preserve">
<style type="text/css">
	.st0{fill:#93989E;}
</style>
<path class="st0" d="M0,12.3c0-0.4,0-0.9,0-1.3c0-0.1,0.1-0.2,0.1-0.2c0.2-0.1,0.4-0.3,0.6-0.4c0.7-0.3,1.4-0.6,2-0.9
	c0.5-0.2,1.1-0.4,1.6-0.8c0.4-0.3,0.7-0.6,1-0.9c0.1-0.1,0.2-0.3,0.2-0.4c0-0.2,0-0.4,0-0.6c0,0,0,0,0-0.1C5.3,6.5,5.2,6.2,5.1,6
	C5,5.8,4.9,5.7,4.8,5.6C4.5,5.3,4.3,5,4.2,4.5C4.1,4.3,4.1,4,4.2,3.7c0-0.1,0-0.2,0-0.2c0-0.4,0-0.7,0-1.1c0-0.4,0.1-0.8,0.4-1.2
	c0.7-1,2.1-1.5,3.1-1.1c0,0,0.1,0,0.1,0C8.2,0.3,8.6,0.5,9,0.5c0.2,0,0.3,0.1,0.4,0.3C9.5,1,9.6,1.2,9.6,1.3
	c0.1,0.7,0.2,1.4,0.2,2.1c0,0.1,0,0.2,0,0.2c0.2,0.4,0.2,0.8,0,1.1C9.7,5.1,9.5,5.3,9.3,5.6C9.1,5.7,9,5.9,8.9,6.1
	C8.8,6.3,8.7,6.5,8.6,6.7C8.5,7,8.5,7.6,8.8,7.8c0.3,0.2,0.6,0.5,0.8,0.7c0.4,0.3,0.8,0.5,1.2,0.7c0.8,0.3,1.6,0.7,2.3,1.1
	c0.3,0.1,0.5,0.3,0.7,0.5c0.1,0.1,0.2,0.2,0.2,0.4c0,0.4,0,0.8,0,1.2H0z"/>
</svg>
