<?xml version="1.0" encoding="utf-8"?>
<!-- Generator: Adobe Illustrator 19.1.0, SVG Export Plug-In . SVG Version: 6.00 Build 0)  -->
<svg version="1.1" id="Layer_1" xmlns="http://www.w3.org/2000/svg" xmlns:xlink="http://www.w3.org/1999/xlink" x="0px" y="0px"
	 width="13.9px" height="13.9px" viewBox="0 0 13.9 13.9" style="enable-background:new 0 0 13.9 13.9;" xml:space="preserve">
<style type="text/css">
	.st0{fill:#EC708A;}
</style>
<path class="st0" d="M12.5,3.8c0,0.1,0,0.3,0,0.4c0,3.8-2.8,8.1-8.1,8.1c-1.6,0-3.1-0.5-4.4-1.3c0.2,0,0.4,0,0.7,0
	c1.3,0,2.5-0.4,3.5-1.2C3.1,9.8,2,9,1.7,7.9c0.2,0,0.4,0,0.5,0c0.3,0,0.6,0,0.8-0.1C1.7,7.5,0.7,6.4,0.7,5v0
	c0.4,0.2,0.8,0.3,1.3,0.4C1.2,4.8,0.7,4,0.7,3c0-0.5,0.1-1,0.4-1.4c1.4,1.7,3.5,2.8,5.8,3c0-0.2-0.1-0.4-0.1-0.7C6.8,2.3,8,1,9.6,1
	c0.8,0,1.5,0.3,2.1,0.9c0.7-0.1,1.3-0.4,1.8-0.7c-0.2,0.7-0.7,1.2-1.3,1.6c0.6-0.1,1.1-0.2,1.6-0.4C13.6,2.9,13.1,3.4,12.5,3.8z"/>
</svg>
